<svg width="360" height="360" viewBox="0 0 360 360" fill="none" xmlns="http://www.w3.org/2000/svg">
<path d="M0 260.916H360C360 260.916 304.417 339.038 172.927 339.057C41.4399 339.079 0 260.916 0 260.916Z" fill="#F8992A"/>
<path d="M304.577 204.118C304.577 204.118 305.373 203.521 305.572 206.106C305.771 208.691 305.572 209.485 305.572 209.485C304.182 210.082 305.373 211.274 302.988 211.871C300.603 212.468 292.059 213.859 292.059 213.859C292.059 213.859 293.252 217.042 289.873 219.229C286.496 221.416 278.062 243.895 272.983 246.669C266.426 250.247 260.263 248.657 259.865 251.837C259.47 255.02 257.284 262.773 259.753 269.337C262.119 275.626 264.436 277.29 264.436 277.29H260.86C260.86 277.29 264.041 282.659 263.245 282.659C262.449 282.659 255.693 282.659 255.693 282.659L254.502 278.481C254.502 278.481 251.321 260.19 248.936 254.024C246.551 247.861 246.551 247.861 246.551 247.861C246.551 247.861 238.206 251.243 226.68 250.645C215.154 250.048 208.994 246.868 208.994 246.868C208.994 246.868 207.897 248.856 201.141 252.039C194.384 255.219 193.295 255.816 193.295 255.816C193.295 255.816 192.104 262.178 194.29 267.546C196.476 272.915 200.586 275.988 199.992 276.187C199.395 276.386 196.324 276.307 196.722 276.902C197.117 277.499 200.052 280.472 199.259 280.472C198.463 280.472 193.539 281.266 193.319 280.668C193.096 280.074 188.327 275.102 186.34 265.159C184.353 255.219 184.95 250.645 184.95 250.645L188.13 247.065C188.13 247.065 176.604 225.591 189.52 212.866C202.437 200.139 233.635 208.094 245.36 206.504C257.085 204.912 264.635 205.907 264.635 205.907C264.635 205.907 273.776 199.146 273.577 198.549C273.378 197.952 272.187 197.357 270.598 194.573C269.007 191.789 267.816 188.21 267.816 188.21C267.816 188.21 272.386 190.796 276.161 192.784C279.936 194.772 280.135 196.163 281.726 195.369C283.315 194.573 288.085 192.386 291.263 193.777C294.444 195.17 304.577 204.118 304.577 204.118" fill="#343434"/>
<path d="M196.039 254.337C196.039 254.337 195.635 256.257 195.301 258.034C195.038 259.454 193.697 260.42 192.268 260.207C191.023 260.022 188.863 260.003 186.985 260.199C184.998 260.407 183.292 258.81 183.401 256.817C183.631 252.631 185.178 250.45 185.178 250.45L188.347 246.889C188.347 246.889 176.862 225.531 189.732 212.875C202.602 200.217 233.691 208.129 245.374 206.547C257.058 204.963 264.581 205.953 264.581 205.953C264.581 205.953 270.914 201.277 272.902 199.38C275.623 200.261 278.988 199.068 280.806 197.062C281.304 196.512 281.672 195.923 281.935 195.314C282.966 194.816 284.805 194.019 286.751 193.646C286.169 194.952 285.872 196.418 285.971 198.054C286.151 201.063 287.565 203.934 289.466 206.235C291.415 208.592 293.969 211.127 296.83 213.034C294.255 213.482 291.908 213.863 291.908 213.863C291.908 213.863 293.097 217.028 289.73 219.203C286.365 221.379 277.96 243.736 272.9 246.495C266.365 250.054 261.414 248.46 261.018 251.625C260.887 252.675 261.307 254.332 261.018 256.174C259.828 257.755 248.552 257.893 248.009 256.267C247.952 256.093 247.837 255.752 247.553 254.79C247.156 253.449 246.793 252.388 246.465 251.549C245.755 249.731 243.809 248.705 241.915 249.187C239.057 249.919 233.915 250.82 226.76 250.45C215.275 249.856 209.137 246.693 209.137 246.693C209.137 246.693 208.044 248.671 201.311 251.836C194.579 254.999 196.039 254.337 196.039 254.337" fill="#F6F6F6"/>
<path d="M208.801 42.8429C208.795 54.8695 203.971 64.1694 183.49 64.604C164.545 65.0043 158.194 54.8445 158.2 42.8178C158.206 30.7912 169.538 21.0505 183.511 21.0567C197.485 21.063 208.807 30.8162 208.801 42.8429Z" fill="#1A2133"/>
<path d="M178.334 75.6336C178.334 75.6336 181.037 68.21 175.302 65.4019C171.539 63.5601 169.848 60.0172 167.933 56.5274C165.555 57.9564 163.979 52.9813 163.552 49.873C163.407 48.8161 163.337 47.7904 163.34 46.7897C163.34 46.3769 163.352 45.9736 163.376 45.5733C164.058 34.416 173.729 27.0237 184.697 27.524C196.85 28.0743 202.424 36.2547 202.785 46.0737C202.982 51.3865 201.946 57.3279 198.958 56.3616C196.877 59.3824 195.316 63.3694 191.154 65.821C187.845 67.7691 189.772 72.9538 189.324 75.7587C188.887 78.4918 195.886 81.2436 195.886 81.2436C196.531 86.5815 193.52 89.5428 184.14 89.8273C173.635 90.1463 172.72 83.7609 171.829 80.8214C175.308 79.655 178.334 76.5186 178.334 75.6336Z" fill="#F8BA7E"/>
<path d="M237.642 121.404C237.642 121.404 231.506 123.292 225.177 126.939C220.987 102.147 208.943 84.2543 192.934 79.6544C192.934 79.6544 190.81 86.2306 183.605 86.4589C175.197 86.7247 173.146 79.9828 173.146 79.9828C158.982 83.1974 149.556 92.8662 142.054 118.186C132.677 149.832 142.054 176.681 142.054 176.681L147.405 177.885C147.405 177.885 157.761 116.394 158.427 115.362C159.094 114.33 162.578 152.921 162.578 152.921L205.065 154.429C205.065 154.429 208.344 118.402 208.05 116.804C208.28 118.026 209.022 127.92 214.236 138.552C216.06 142.274 222.587 146.029 231.506 140.241C240.681 134.287 242.517 126.004 242.517 126.004L237.642 121.404Z" fill="#F8992A"/>
<path d="M177.912 57.2687C177.346 57.8034 179.897 60.5552 183.12 60.6397C186.771 60.7335 188.729 57.7816 188.283 57.3344C187.959 57.0092 186.444 57.619 183.429 57.719C180.127 57.8285 178.388 56.8184 177.912 57.2687Z" fill="#D02242"/>
<path d="M179.528 57.3348C180.068 57.9474 181.304 58.807 182.991 58.9571C185.291 59.1603 186.576 58.0975 187.009 57.3285C184.343 57.7036 181.886 57.6849 179.528 57.3348Z" fill="#F5E7CA"/>
<path d="M184.452 34.2379C184.452 34.2379 181.652 40.6046 182.831 40.2169C186.285 39.0786 189.26 35.5919 190.578 36.4956C193.147 38.2593 199.686 52.1121 199.686 52.1121C199.686 52.1121 200.482 47.6154 202.661 48.4347C203.818 44.751 203.34 38.1373 197.319 32.2741C193.184 28.2527 186.697 27.2083 182.855 27.5648C179.016 27.9244 172.381 28.4467 168.191 33.4875C165.703 36.4832 162.904 40.4389 163.295 47.8C165.476 47.1871 167.327 49.3291 167.127 52.3967C167.127 52.3967 169.784 48.269 173.072 43.8067C175.786 40.1231 179.289 35.3887 179.289 35.3887C179.289 35.3887 176.526 42.6685 176.904 42.4527C182.655 39.1318 184.452 34.2379 184.452 34.2379" fill="#D0541F"/>
<path d="M176.7 295.131C176.958 295.069 154.952 301.529 153.928 298.527C153.801 298.155 153.892 297.573 153.892 297.573C156.67 294.687 168.898 289.956 168.898 289.956L176.7 294.337V295.131Z" fill="white"/>
<path d="M175.106 282.331L169.985 282.328L169.988 274.882L175.109 274.886L175.106 282.331Z" fill="#F2564A"/>
<path d="M147.326 176.803C147.326 176.803 143.02 175.965 141.624 176.684C140.809 179.686 139.918 185.371 139.179 189.055C138.482 192.538 141.296 196.175 144.184 196.863C146.384 197.385 145.644 191.662 146.511 189.176C146.838 188.238 147.211 193.26 148.026 192.538C150.871 190.021 147.326 176.803 147.326 176.803" fill="#F8BA7E"/>
<path d="M165.09 81.8994C165.09 81.8994 157.21 159.369 156.34 176.737C155.474 194.023 163.927 253.962 168.456 269.82C174.392 270.182 175.592 269.003 175.592 269.003L183.221 178.91C183.221 178.91 187.729 247.374 190.513 263.953C194.704 263.953 199.63 264.388 199.63 264.388C199.63 264.388 210.449 187.931 209.407 172.077C208.368 156.223 202.048 82.4529 202.048 82.4529L196.97 80.5173L198.963 110.274L168.426 110.618L169.511 80.1701L165.09 81.8994" fill="#1A2133"/>
<path d="M162.813 254.691H180.074L176.702 294.336C176.702 294.336 154.775 300.778 153.93 297.732C153.196 295.087 168.676 286.5 168.676 286.5L162.813 254.691" fill="#3D1514"/>
<path d="M203.806 254.691H186.548L189.917 294.336C189.917 294.336 211.844 300.778 212.689 297.732C213.425 295.087 197.943 286.5 197.943 286.5L203.806 254.691" fill="#3D1514"/>
<path d="M173.269 79.6553C173.269 79.6553 176.602 86.3784 183.361 86.466C189.912 86.5473 192.936 79.6553 192.936 79.6553L194.266 80.1712C194.042 80.7341 191.221 87.5479 183.352 87.7668C176.017 87.9701 172.157 80.2275 172.157 80.2275L173.269 79.6553Z" fill="#1A2133"/>
<path d="M141.747 175.731L141.623 176.684L147.595 177.885L147.586 176.809L141.747 175.731" fill="#1A2133"/>
<path d="M169.987 234.016C166.54 234.016 163.746 231.136 163.746 227.577C163.746 224.022 166.54 221.139 169.987 221.139C173.432 221.139 176.226 224.022 176.226 227.577C176.226 231.136 173.432 234.016 169.987 234.016Z" fill="#4075C0"/>
<path d="M195.153 234.016C191.709 234.016 188.915 231.136 188.915 227.577C188.915 224.022 191.709 221.139 195.153 221.139C198.598 221.139 201.395 224.022 201.395 227.577C201.395 231.136 198.598 234.016 195.153 234.016Z" fill="#4075C0"/>
<path d="M237.822 121.571L241.686 127.183C243.693 124.849 247.186 120.553 249.412 117.575C251.515 114.756 249.017 108.422 246.315 107.968C244.088 107.592 244.703 112.31 242.869 114.157C242.178 114.852 243.97 110.17 242.932 110.449C239.307 111.428 237.822 121.571 237.822 121.571" fill="#F8BA7E"/>
<path d="M237.903 121.145L242.359 127.149L241.687 128.246L236.654 121.852L237.903 121.145Z" fill="#1A2133"/>
<path d="M252.679 96.0766H252.499V91.1673C252.499 90.7942 252.426 90.4247 252.282 90.0799C252.139 89.7352 251.929 89.422 251.665 89.1581C251.401 88.8943 251.087 88.685 250.741 88.5422C250.395 88.3994 250.025 88.3259 249.651 88.3259H239.225C238.47 88.3259 237.745 88.6253 237.211 89.1581C236.677 89.691 236.377 90.4137 236.377 91.1673V118.1C236.377 118.473 236.451 118.843 236.594 119.187C236.737 119.532 236.947 119.845 237.211 120.109C237.476 120.373 237.79 120.582 238.135 120.725C238.481 120.868 238.851 120.941 239.225 120.941H249.651C250.406 120.941 251.131 120.642 251.665 120.109C252.199 119.576 252.499 118.854 252.499 118.1V99.5711H252.679V96.0766Z" fill="#3F3D56"/>
<path d="M249.359 89.6848H248.104C248.161 89.8318 248.183 89.9913 248.168 90.1492C248.152 90.3071 248.099 90.4586 248.014 90.5903C247.929 90.7221 247.814 90.83 247.679 90.9047C247.544 90.9793 247.393 91.0184 247.241 91.0184H241.732C241.579 91.0184 241.429 90.9793 241.294 90.9047C241.159 90.83 241.044 90.7221 240.959 90.5903C240.873 90.4586 240.821 90.3071 240.805 90.1492C240.79 89.9913 240.812 89.8318 240.869 89.6848H239.697C239.439 89.6848 239.184 89.7375 238.946 89.8399C238.708 89.9423 238.492 90.0924 238.31 90.2816C238.128 90.4708 237.983 90.6954 237.885 90.9425C237.786 91.1897 237.735 91.4547 237.735 91.7222V117.545C237.735 117.812 237.786 118.077 237.885 118.325C237.983 118.572 238.128 118.796 238.31 118.986C238.492 119.175 238.708 119.325 238.946 119.427C239.184 119.53 239.439 119.582 239.697 119.582H249.359C249.616 119.582 249.871 119.53 250.109 119.427C250.347 119.325 250.564 119.175 250.746 118.986C250.928 118.796 251.072 118.572 251.171 118.325C251.27 118.077 251.32 117.812 251.32 117.545V91.7222C251.32 91.4547 251.27 91.1897 251.171 90.9425C251.072 90.6954 250.928 90.4708 250.746 90.2816C250.564 90.0924 250.347 89.9423 250.109 89.8399C249.871 89.7375 249.616 89.6848 249.359 89.6848Z" fill="white"/>
<path d="M244.528 109.39C247.154 109.39 249.283 107.26 249.283 104.634C249.283 102.007 247.154 99.8772 244.528 99.8772C241.902 99.8772 239.773 102.007 239.773 104.634C239.773 107.26 241.902 109.39 244.528 109.39Z" fill="#57B860"/>
<path d="M69.008 241.49C69.008 241.49 68.2122 240.892 68.0132 243.478C67.8143 246.063 68.0132 246.857 68.0132 246.857C69.4033 247.454 68.2122 248.646 70.597 249.243C72.9818 249.84 81.5262 251.231 81.5262 251.231C81.5262 251.231 80.3325 254.414 83.712 256.601C87.089 258.788 95.5234 281.267 100.602 284.041C107.159 287.619 113.322 286.029 113.72 289.209C114.115 292.392 116.301 300.145 113.832 306.709C111.466 312.998 109.149 314.661 109.149 314.661H112.725C112.725 314.661 109.544 320.031 110.34 320.031C111.136 320.031 117.892 320.031 117.892 320.031L119.083 315.853C119.083 315.853 122.264 297.562 124.649 291.396C127.034 285.233 127.034 285.233 127.034 285.233C127.034 285.233 135.379 288.614 146.905 288.017C158.431 287.42 164.591 284.24 164.591 284.24C164.591 284.24 165.688 286.228 172.444 289.411C179.201 292.591 180.29 293.188 180.29 293.188C180.29 293.188 181.481 299.55 179.295 304.917C177.109 310.287 172.999 313.36 173.593 313.559C174.19 313.758 177.261 313.679 176.863 314.274C176.468 314.871 173.533 317.844 174.326 317.844C175.122 317.844 180.046 318.638 180.266 318.04C180.489 317.446 185.258 312.474 187.245 302.531C189.232 292.591 188.635 288.017 188.635 288.017L185.455 284.437C185.455 284.437 196.981 262.963 184.065 250.238C171.148 237.511 139.95 245.466 128.225 243.876C116.5 242.283 108.95 243.279 108.95 243.279C108.95 243.279 99.8087 236.518 100.008 235.921C100.207 235.324 101.398 234.729 102.987 231.945C104.578 229.16 105.769 225.582 105.769 225.582C105.769 225.582 101.199 228.168 97.424 230.156C93.6491 232.144 93.4502 233.535 91.8586 232.741C90.2696 231.945 85.5 229.758 82.322 231.148C79.1414 232.542 69.008 241.49 69.008 241.49" fill="#343434"/>
<path d="M177.546 291.709C177.546 291.709 177.95 293.629 178.284 295.406C178.547 296.825 179.888 297.792 181.317 297.578C182.562 297.393 184.722 297.375 186.6 297.571C188.587 297.779 190.293 296.182 190.184 294.189C189.954 290.002 188.407 287.822 188.407 287.822L185.238 284.261C185.238 284.261 196.723 262.903 183.853 250.247C170.983 237.588 139.894 245.5 128.211 243.919C116.527 242.335 109.004 243.325 109.004 243.325C109.004 243.325 102.671 238.649 100.683 236.752C97.9622 237.633 94.5972 236.44 92.779 234.434C92.2808 233.884 91.913 233.295 91.6496 232.686C90.6192 232.188 88.7802 231.391 86.8342 231.018C87.4159 232.323 87.7133 233.79 87.6142 235.426C87.4342 238.435 86.0203 241.306 84.1187 243.606C82.1702 245.964 79.6164 248.499 76.7549 250.406C79.3295 250.854 81.6772 251.235 81.6772 251.235C81.6772 251.235 80.4877 254.4 83.8553 256.575C87.2203 258.751 95.6249 281.108 100.685 283.867C107.22 287.426 112.171 285.832 112.567 288.997C112.698 290.047 112.278 291.704 112.567 293.546C113.757 295.127 125.033 295.265 125.576 293.639C125.633 293.465 125.748 293.123 126.032 292.162C126.429 290.82 126.792 289.76 127.12 288.921C127.83 287.103 129.776 286.076 131.669 286.558C134.528 287.29 139.67 288.192 146.825 287.822C158.31 287.228 164.448 284.065 164.448 284.065C164.448 284.065 165.541 286.043 172.274 289.208C179.006 292.371 177.546 291.709 177.546 291.709" fill="#F6F6F6"/>
</svg>
