<svg width="360" height="360" viewBox="0 0 360 360" fill="none" xmlns="http://www.w3.org/2000/svg">
<mask id="mask0_443:6456" style="mask-type:alpha" maskUnits="userSpaceOnUse" x="0" y="0" width="360" height="360">
<path fill-rule="evenodd" clip-rule="evenodd" d="M184.989 0.0128774C260.308 0.857513 327.126 49.4799 350.723 123.064C374.652 197.683 351.57 280.637 289.8 326.857C227.927 373.155 144.424 369.792 82.2038 323.988C18.5113 277.099 -16.5528 195.811 7.74718 119.218C31.9594 42.9019 106.954 -0.862205 184.989 0.0128774Z" fill="#DCEAFF"/>
</mask>
<g mask="url(#mask0_443:6456)">
<path fill-rule="evenodd" clip-rule="evenodd" d="M184.989 0.0128774C260.308 0.857513 327.126 49.4799 350.723 123.064C374.652 197.683 351.57 280.637 289.8 326.857C227.927 373.155 144.424 369.792 82.2038 323.988C18.5113 277.099 -16.5528 195.811 7.74718 119.218C31.9594 42.9019 106.954 -0.862205 184.989 0.0128774Z" fill="#DCEAFF"/>
<path fill-rule="evenodd" clip-rule="evenodd" d="M430.161 154.304L417.431 144.765C404.314 135.226 378.854 116.148 353.007 111.378C327.16 106.609 301.699 116.148 275.853 132.841C250.006 149.535 224.545 173.383 198.698 185.307C172.852 197.231 147.391 197.231 121.544 185.307C95.6974 173.383 70.2366 149.535 44.3899 135.226C18.5432 120.917 -6.91772 116.148 -20.0339 113.763L-32.7644 111.378V366.855H-20.0339C-6.91772 366.855 18.5432 366.855 44.3899 366.855C70.2366 366.855 95.6974 366.855 121.544 366.855C147.391 366.855 172.852 366.855 198.698 366.855C224.545 366.855 250.006 366.855 275.853 366.855C301.699 366.855 327.16 366.855 353.007 366.855C378.854 366.855 404.314 366.855 417.431 366.855H430.161L430.161 154.304Z" fill="#57B860" fill-opacity="0.3"/>
<path fill-rule="evenodd" clip-rule="evenodd" d="M464.943 175.666L446.843 162.098C428.193 148.53 391.992 121.395 355.242 114.611C318.492 107.827 282.291 121.395 245.541 145.138C208.791 168.882 172.59 202.801 135.84 219.76C99.0902 236.72 62.8888 236.72 26.1389 219.76C-10.611 202.801 -46.8123 168.882 -83.5622 148.53C-120.312 128.179 -156.513 121.395 -175.163 118.003L-193.263 114.611V477.978H-175.163C-156.513 477.978 -120.312 477.978 -83.5622 477.978C-46.8123 477.978 -10.611 477.978 26.1389 477.978C62.8888 477.978 99.0902 477.978 135.84 477.978C172.59 477.978 208.791 477.978 245.541 477.978C282.291 477.978 318.492 477.978 355.242 477.978C391.992 477.978 428.193 477.978 446.843 477.978H464.943L464.943 175.666Z" fill="#57B860"/>
<rect x="76.7236" y="55.0835" width="197.572" height="221.689" rx="4" fill="#737373"/>
<path d="M119.694 134.988C122.169 134.988 124.175 132.918 124.175 130.365C124.175 127.811 122.169 125.741 119.694 125.741C117.219 125.741 115.213 127.811 115.213 130.365C115.213 132.918 117.219 134.988 119.694 134.988Z" fill="#E6E6E6"/>
<path d="M138.365 134.988C140.839 134.988 142.846 132.918 142.846 130.365C142.846 127.811 140.839 125.741 138.365 125.741C135.89 125.741 133.884 127.811 133.884 130.365C133.884 132.918 135.89 134.988 138.365 134.988Z" fill="#E6E6E6"/>
<path d="M157.033 134.988C159.507 134.988 161.514 132.918 161.514 130.365C161.514 127.811 159.507 125.741 157.033 125.741C154.558 125.741 152.552 127.811 152.552 130.365C152.552 132.918 154.558 134.988 157.033 134.988Z" fill="#57B860"/>
<path d="M175.702 134.988C178.176 134.988 180.182 132.918 180.182 130.365C180.182 127.811 178.176 125.741 175.702 125.741C173.227 125.741 171.221 127.811 171.221 130.365C171.221 132.918 173.227 134.988 175.702 134.988Z" fill="#57B860"/>
<path d="M194.373 134.988C196.848 134.988 198.854 132.918 198.854 130.365C198.854 127.811 196.848 125.741 194.373 125.741C191.899 125.741 189.893 127.811 189.893 130.365C189.893 132.918 191.899 134.988 194.373 134.988Z" fill="#57B860"/>
<path d="M213.043 134.988C215.518 134.988 217.524 132.918 217.524 130.365C217.524 127.811 215.518 125.741 213.043 125.741C210.569 125.741 208.562 127.811 208.562 130.365C208.562 132.918 210.569 134.988 213.043 134.988Z" fill="#E6E6E6"/>
<path d="M231.717 134.988C234.192 134.988 236.198 132.918 236.198 130.365C236.198 127.811 234.192 125.741 231.717 125.741C229.242 125.741 227.236 127.811 227.236 130.365C227.236 132.918 229.242 134.988 231.717 134.988Z" fill="#E6E6E6"/>
<path d="M119.694 149.628C122.169 149.628 124.175 147.558 124.175 145.005C124.175 142.452 122.169 140.382 119.694 140.382C117.219 140.382 115.213 142.452 115.213 145.005C115.213 147.558 117.219 149.628 119.694 149.628Z" fill="#E6E6E6"/>
<path d="M138.365 149.628C140.839 149.628 142.846 147.558 142.846 145.005C142.846 142.452 140.839 140.382 138.365 140.382C135.89 140.382 133.884 142.452 133.884 145.005C133.884 147.558 135.89 149.628 138.365 149.628Z" fill="#E6E6E6"/>
<path d="M157.033 149.628C159.507 149.628 161.514 147.558 161.514 145.005C161.514 142.452 159.507 140.382 157.033 140.382C154.558 140.382 152.552 142.452 152.552 145.005C152.552 147.558 154.558 149.628 157.033 149.628Z" fill="#E6E6E6"/>
<path d="M175.702 149.628C178.176 149.628 180.182 147.558 180.182 145.005C180.182 142.452 178.176 140.382 175.702 140.382C173.227 140.382 171.221 142.452 171.221 145.005C171.221 147.558 173.227 149.628 175.702 149.628Z" fill="#E6E6E6"/>
<path d="M194.373 149.628C196.848 149.628 198.854 147.558 198.854 145.005C198.854 142.452 196.848 140.382 194.373 140.382C191.899 140.382 189.893 142.452 189.893 145.005C189.893 147.558 191.899 149.628 194.373 149.628Z" fill="#E6E6E6"/>
<path d="M213.043 149.628C215.518 149.628 217.524 147.558 217.524 145.005C217.524 142.452 215.518 140.382 213.043 140.382C210.569 140.382 208.562 142.452 208.562 145.005C208.562 147.558 210.569 149.628 213.043 149.628Z" fill="#E6E6E6"/>
<path d="M231.717 149.628C234.192 149.628 236.198 147.558 236.198 145.005C236.198 142.452 234.192 140.382 231.717 140.382C229.242 140.382 227.236 142.452 227.236 145.005C227.236 147.558 229.242 149.628 231.717 149.628Z" fill="#E6E6E6"/>
<path d="M119.694 164.267C122.169 164.267 124.175 162.197 124.175 159.644C124.175 157.091 122.169 155.021 119.694 155.021C117.219 155.021 115.213 157.091 115.213 159.644C115.213 162.197 117.219 164.267 119.694 164.267Z" fill="#57B860"/>
<path d="M138.365 164.267C140.839 164.267 142.846 162.197 142.846 159.644C142.846 157.091 140.839 155.021 138.365 155.021C135.89 155.021 133.884 157.091 133.884 159.644C133.884 162.197 135.89 164.267 138.365 164.267Z" fill="#57B860"/>
<path d="M157.033 164.267C159.507 164.267 161.514 162.197 161.514 159.644C161.514 157.091 159.507 155.021 157.033 155.021C154.558 155.021 152.552 157.091 152.552 159.644C152.552 162.197 154.558 164.267 157.033 164.267Z" fill="#57B860"/>
<path d="M175.702 164.267C178.176 164.267 180.182 162.197 180.182 159.644C180.182 157.091 178.176 155.021 175.702 155.021C173.227 155.021 171.221 157.091 171.221 159.644C171.221 162.197 173.227 164.267 175.702 164.267Z" fill="#E6E6E6"/>
<path d="M194.373 164.267C196.848 164.267 198.854 162.197 198.854 159.644C198.854 157.091 196.848 155.021 194.373 155.021C191.899 155.021 189.893 157.091 189.893 159.644C189.893 162.197 191.899 164.267 194.373 164.267Z" fill="#E6E6E6"/>
<path d="M213.043 164.267C215.518 164.267 217.524 162.197 217.524 159.644C217.524 157.091 215.518 155.021 213.043 155.021C210.569 155.021 208.562 157.091 208.562 159.644C208.562 162.197 210.569 164.267 213.043 164.267Z" fill="#E6E6E6"/>
<path d="M231.717 164.267C234.192 164.267 236.198 162.197 236.198 159.644C236.198 157.091 234.192 155.021 231.717 155.021C229.242 155.021 227.236 157.091 227.236 159.644C227.236 162.197 229.242 164.267 231.717 164.267Z" fill="#E6E6E6"/>
<path d="M119.694 178.907C122.169 178.907 124.175 176.837 124.175 174.284C124.175 171.731 122.169 169.661 119.694 169.661C117.219 169.661 115.213 171.731 115.213 174.284C115.213 176.837 117.219 178.907 119.694 178.907Z" fill="#E6E6E6"/>
<path d="M138.365 178.907C140.839 178.907 142.846 176.837 142.846 174.284C142.846 171.731 140.839 169.661 138.365 169.661C135.89 169.661 133.884 171.731 133.884 174.284C133.884 176.837 135.89 178.907 138.365 178.907Z" fill="#E6E6E6"/>
<path d="M119.694 193.546C122.169 193.546 124.175 191.477 124.175 188.923C124.175 186.37 122.169 184.3 119.694 184.3C117.219 184.3 115.213 186.37 115.213 188.923C115.213 191.477 117.219 193.546 119.694 193.546Z" fill="#E6E6E6"/>
<path d="M138.365 193.546C140.839 193.546 142.846 191.477 142.846 188.923C142.846 186.37 140.839 184.3 138.365 184.3C135.89 184.3 133.884 186.37 133.884 188.923C133.884 191.477 135.89 193.546 138.365 193.546Z" fill="#E6E6E6"/>
<path d="M157.033 193.546C159.507 193.546 161.514 191.477 161.514 188.923C161.514 186.37 159.507 184.3 157.033 184.3C154.558 184.3 152.552 186.37 152.552 188.923C152.552 191.477 154.558 193.546 157.033 193.546Z" fill="#E6E6E6"/>
<path d="M157.033 178.907C159.507 178.907 161.514 176.837 161.514 174.284C161.514 171.731 159.507 169.661 157.033 169.661C154.558 169.661 152.552 171.731 152.552 174.284C152.552 176.837 154.558 178.907 157.033 178.907Z" fill="#E6E6E6"/>
<path d="M175.702 178.907C178.176 178.907 180.182 176.837 180.182 174.284C180.182 171.731 178.176 169.661 175.702 169.661C173.227 169.661 171.221 171.731 171.221 174.284C171.221 176.837 173.227 178.907 175.702 178.907Z" fill="#57B860"/>
<path d="M194.373 178.907C196.848 178.907 198.854 176.837 198.854 174.284C198.854 171.731 196.848 169.661 194.373 169.661C191.899 169.661 189.893 171.731 189.893 174.284C189.893 176.837 191.899 178.907 194.373 178.907Z" fill="#57B860"/>
<path d="M213.043 178.907C215.518 178.907 217.524 176.837 217.524 174.284C217.524 171.731 215.518 169.661 213.043 169.661C210.569 169.661 208.562 171.731 208.562 174.284C208.562 176.837 210.569 178.907 213.043 178.907Z" fill="#57B860"/>
<path d="M231.717 178.907C234.192 178.907 236.198 176.837 236.198 174.284C236.198 171.731 234.192 169.661 231.717 169.661C229.242 169.661 227.236 171.731 227.236 174.284C227.236 176.837 229.242 178.907 231.717 178.907Z" fill="#E6E6E6"/>
<path d="M141.784 89.5009C141.074 89.5129 140.396 89.8125 139.898 90.3349C139.4 90.8573 139.121 91.5608 139.121 92.2936C139.121 93.0264 139.4 93.7299 139.898 94.2523C140.396 94.7747 141.074 95.0743 141.784 95.0863H209.653C210.009 95.0928 210.362 95.0268 210.693 94.8922C211.024 94.7576 211.326 94.557 211.582 94.3019C211.838 94.0468 212.042 93.7422 212.184 93.4055C212.325 93.0687 212.401 92.7065 212.407 92.3395C212.413 91.9725 212.349 91.6079 212.218 91.2666C212.087 90.9252 211.892 90.6138 211.645 90.3502C211.397 90.0866 211.102 89.8759 210.775 89.7301C210.449 89.5844 210.097 89.5065 209.742 89.5009C209.712 89.5004 209.683 89.5004 209.653 89.5009H141.784Z" fill="#57B860"/>
<path d="M225.045 88.7222C224.995 88.7733 224.956 88.8338 224.929 88.9005C224.902 88.9672 224.889 89.0387 224.889 89.1108C224.889 89.183 224.902 89.2545 224.929 89.3211C224.956 89.3878 224.995 89.4484 225.045 89.4994L227.331 91.8586H221.693C221.552 91.8586 221.416 91.9165 221.316 92.0195C221.216 92.1226 221.16 92.2624 221.16 92.4081C221.16 92.5539 221.216 92.6936 221.316 92.7967C221.416 92.8998 221.552 92.9577 221.693 92.9577H227.331L225.045 95.3168C224.995 95.3678 224.956 95.4284 224.929 95.4951C224.902 95.5618 224.889 95.6332 224.889 95.7054C224.889 95.7776 224.902 95.849 224.929 95.9157C224.956 95.9824 224.995 96.043 225.045 96.094C225.094 96.145 225.153 96.1855 225.217 96.2131C225.282 96.2407 225.351 96.255 225.421 96.255C225.491 96.255 225.561 96.2407 225.625 96.2131C225.69 96.1855 225.749 96.145 225.798 96.094L228.994 92.7967C229.094 92.6937 229.15 92.5539 229.15 92.4081C229.15 92.2624 229.094 92.1226 228.994 92.0195L225.798 88.7222C225.749 88.6712 225.69 88.6307 225.625 88.6031C225.561 88.5755 225.491 88.5613 225.421 88.5613C225.351 88.5613 225.282 88.5755 225.218 88.6031C225.153 88.6307 225.094 88.6712 225.045 88.7222Z" fill="#E6E6E6"/>
<path d="M126.364 88.7222C126.413 88.7733 126.453 88.8339 126.479 88.9005C126.506 88.9672 126.52 89.0387 126.52 89.1108C126.52 89.183 126.506 89.2545 126.479 89.3211C126.453 89.3878 126.413 89.4484 126.364 89.4994L124.077 91.8586H129.716C129.857 91.8586 129.993 91.9165 130.092 92.0195C130.192 92.1226 130.249 92.2624 130.249 92.4081C130.249 92.5539 130.192 92.6937 130.092 92.7967C129.993 92.8998 129.857 92.9577 129.716 92.9577H124.077L126.364 95.3168C126.464 95.4199 126.52 95.5597 126.52 95.7054C126.52 95.8512 126.464 95.9909 126.364 96.094C126.264 96.1971 126.129 96.255 125.987 96.255C125.846 96.255 125.711 96.1971 125.611 96.094L122.415 92.7967C122.315 92.6937 122.259 92.5539 122.259 92.4081C122.259 92.2624 122.315 92.1226 122.415 92.0195L125.611 88.7222C125.66 88.6712 125.719 88.6307 125.783 88.6031C125.848 88.5755 125.917 88.5613 125.987 88.5613C126.057 88.5613 126.127 88.5755 126.191 88.6031C126.256 88.6307 126.314 88.6712 126.364 88.7222V88.7222Z" fill="#E6E6E6"/>
<path d="M137.991 223.053C136.715 223.052 135.452 223.311 134.273 223.814C133.095 224.317 132.024 225.054 131.121 225.985C130.219 226.915 129.503 228.019 129.015 229.235C128.527 230.451 128.275 231.754 128.275 233.07C128.275 234.386 128.527 235.689 129.015 236.905C129.503 238.12 130.219 239.225 131.121 240.155C132.024 241.085 133.095 241.823 134.273 242.326C135.452 242.829 136.715 243.087 137.991 243.087H213.419C214.695 243.087 215.958 242.829 217.136 242.326C218.315 241.823 219.386 241.085 220.288 240.155C221.191 239.225 221.906 238.12 222.395 236.905C222.883 235.689 223.134 234.386 223.134 233.07C223.134 231.754 222.883 230.451 222.395 229.235C221.906 228.019 221.191 226.915 220.288 225.985C219.386 225.054 218.315 224.317 217.136 223.814C215.958 223.311 214.695 223.052 213.419 223.053H137.991Z" fill="#5EA765"/>
<path d="M104.191 63.7881C103.584 63.1719 102.786 62.7936 101.935 62.719C101.085 62.6443 100.236 62.878 99.5361 63.3795C101.786 64.3417 103.624 66.1029 104.715 68.3416C105.136 67.6317 105.313 66.7974 105.218 65.972C105.123 65.1465 104.761 64.3776 104.191 63.7881V63.7881Z" fill="#75C97D"/>
<path d="M91.5283 63.5221C90.8312 62.9535 89.9555 62.6666 89.0666 62.7156C88.1776 62.7646 87.3369 63.1461 86.703 63.788C86.0744 64.4379 85.7021 65.3037 85.6578 66.2186C85.6135 67.1335 85.9003 68.033 86.463 68.7437C87.4764 66.4281 89.2774 64.5715 91.5283 63.5221V63.5221Z" fill="#75C97D"/>
<path d="M95.6842 63.8921C93.9384 63.8958 92.2328 64.4302 90.7823 65.4279C89.3317 66.4255 88.2012 67.8419 87.5332 69.4984C86.8653 71.1549 86.6897 72.9774 87.0286 74.7363C87.3676 76.4951 88.2059 78.1115 89.4379 79.3818L87.8274 81.0359C87.7689 81.0972 87.7227 81.1698 87.6916 81.2494C87.6604 81.329 87.6448 81.4142 87.6457 81.5C87.6466 81.5859 87.6639 81.6707 87.6967 81.7496C87.7295 81.8286 87.7771 81.9001 87.8368 81.9602C87.8965 82.0202 87.9672 82.0676 88.0447 82.0996C88.1223 82.1317 88.2052 82.1477 88.2888 82.1468C88.3724 82.1459 88.4549 82.1281 88.5318 82.0944C88.6087 82.0607 88.6784 82.0118 88.7368 81.9505L90.4168 80.2251C91.9532 81.4191 93.8293 82.0609 95.7559 82.0515C97.6825 82.0421 99.5526 81.3821 101.078 80.1732L102.808 81.9505C102.929 82.0567 103.085 82.1123 103.244 82.106C103.403 82.0996 103.553 82.032 103.666 81.9165C103.778 81.8009 103.844 81.6461 103.85 81.4828C103.856 81.3196 103.802 81.16 103.699 81.0359L102 79.317C103.215 78.0391 104.036 76.4218 104.36 74.6674C104.684 72.9129 104.498 71.0992 103.824 69.453C103.15 67.8068 102.018 66.4012 100.57 65.4121C99.1226 64.4231 97.423 63.8943 95.6842 63.8921V63.8921ZM100.402 75.198C100.33 75.3526 100.201 75.4714 100.043 75.5285C99.8859 75.5856 99.7129 75.5764 99.5621 75.5029L95.0526 73.2586V67.5829C95.0526 67.4109 95.1192 67.2459 95.2376 67.1242C95.356 67.0026 95.5167 66.9343 95.6842 66.9343C95.8517 66.9343 96.0123 67.0026 96.1308 67.1242C96.2492 67.2459 96.3158 67.4109 96.3158 67.5829V72.4478L100.105 74.3353C100.181 74.371 100.249 74.4216 100.305 74.4843C100.362 74.5469 100.406 74.6205 100.435 74.7006C100.463 74.7808 100.476 74.866 100.473 74.9514C100.47 75.0367 100.45 75.1206 100.415 75.198H100.402Z" fill="#75C97D"/>
<path d="M263.342 164.424C263.336 182.293 256.167 196.112 225.722 196.757C197.56 197.357 188.122 182.256 188.131 164.387C188.138 146.522 204.982 132.044 225.752 132.053C246.522 132.063 263.351 146.559 263.342 164.424Z" fill="#3C3C3C"/>
<path d="M218.057 213.145C218.057 213.145 222.073 202.119 213.548 197.947C207.954 195.21 205.444 189.946 202.596 184.756C199.06 186.884 196.72 179.487 196.083 174.869C195.867 173.303 195.765 171.774 195.769 170.288C195.769 169.679 195.788 169.075 195.825 168.48C196.836 151.902 211.21 140.923 227.512 141.662C245.577 142.48 253.862 154.639 254.401 169.224C254.691 177.118 253.151 185.95 248.711 184.515C245.617 188.998 243.295 194.922 237.108 198.565C232.19 201.464 234.274 209.586 234.872 213.763C235.12 215.487 244.78 219.896 244.78 219.896C245.74 227.827 240.626 233.816 226.685 234.239C211.073 234.708 209.71 225.221 208.387 220.858C207.905 219.264 209.829 218.841 211.405 218.465C211.405 218.465 218.055 214.46 218.057 213.145" fill="#F8BA7E"/>
<path d="M217.431 185.858C216.589 186.653 220.38 190.741 225.172 190.867C230.596 191.006 233.504 186.62 232.843 185.96C232.361 185.477 230.108 186.379 225.627 186.527C220.723 186.69 218.135 185.194 217.431 185.858Z" fill="#D02242"/>
<path d="M219.829 185.96C220.63 186.866 222.47 188.143 224.978 188.366C228.393 188.673 230.303 187.093 230.949 185.95C226.985 186.503 223.334 186.475 219.829 185.96Z" fill="#F5E7CA"/>
<path d="M227.136 151.652C227.136 151.652 222.972 161.112 224.722 160.536C229.861 158.844 234.284 153.664 236.24 155.007C240.057 157.627 249.778 178.215 249.778 178.215C249.778 178.215 250.96 171.529 254.199 172.746C255.919 167.277 255.209 157.446 246.258 148.739C240.113 142.759 230.47 141.207 224.761 141.737C219.053 142.271 209.195 143.047 202.964 150.542C199.266 154.988 195.106 160.866 195.69 171.808C198.93 170.897 201.679 174.075 201.382 178.633C201.382 178.633 205.334 172.505 210.22 165.87C214.254 160.396 219.459 153.367 219.459 153.367C219.459 153.367 215.354 164.183 215.918 163.858C224.464 158.924 227.136 151.652 227.136 151.652" fill="#AD5028"/>
<path d="M165.258 361.864C165.258 361.864 151.32 321.971 165.258 274.951C176.409 237.33 190.421 222.964 211.474 218.183C211.474 218.183 214.522 228.205 227.018 227.81C237.729 227.471 240.887 217.7 240.887 217.7C265.993 224.911 285.018 256.663 290.156 296.417C296.101 342.415 291.423 362.05 291.423 362.05L282.686 363.114C283.748 360.201 262.811 271.285 263.342 272.819C263.875 274.352 258.914 328.802 258.914 328.802L195.767 326.562C195.767 326.562 190.59 269.222 189.597 270.756C188.607 272.289 173.215 363.653 173.215 363.653L165.258 361.864" fill="#3C3C3C"/>
<path d="M199.5 221.035C199.5 221.035 187.788 336.142 186.493 361.947C185.206 387.632 197.769 476.692 204.505 500.253C213.327 500.792 215.109 499.04 215.109 499.04L226.449 365.177C226.449 365.177 233.149 466.902 237.288 491.532C243.516 491.537 250.839 492.183 250.839 492.183C250.839 492.183 266.919 378.581 265.373 355.024C263.827 331.468 254.435 221.857 254.435 221.857L246.886 218.981L249.849 263.195L204.459 263.706L206.071 218.466L199.5 221.035" fill="#DCDCDC"/>
<path d="M211.65 217.699C211.65 217.699 216.604 227.688 226.65 227.819C236.389 227.939 240.883 217.699 240.883 217.699L242.857 218.466C242.525 219.302 238.332 229.426 226.636 229.751C215.736 230.053 209.998 218.549 209.998 218.549L211.65 217.699" fill="#3C3C3C"/>
</g>
</svg>
