<svg width="24" height="24" viewBox="0 0 24 24" fill="none" xmlns="http://www.w3.org/2000/svg">
<path d="M4.0902 14.9928L3.02662 19.5918C2.98993 19.7599 2.99118 19.9341 3.0303 20.1017C3.06941 20.2692 3.14539 20.4259 3.25269 20.5603C3.35999 20.6947 3.4959 20.8034 3.65048 20.8784C3.80506 20.9534 3.97442 20.9929 4.14618 20.9939C4.22621 21.002 4.30685 21.002 4.38689 20.9939L9.00508 19.9283L17.872 11.0781L12.9236 6.13135L4.0902 14.9928Z" fill="black"/>
<path d="M20.6611 6.64698L17.3583 3.33796C17.1412 3.12151 16.8474 3 16.5411 3C16.2348 3 15.9409 3.12151 15.7238 3.33796L13.8877 5.17755L18.8306 10.1299L20.6667 8.29028C20.7741 8.18208 20.8592 8.05371 20.9171 7.91252C20.975 7.77134 21.0045 7.6201 21.004 7.46747C21.0034 7.31484 20.9729 7.1638 20.9141 7.02302C20.8552 6.88223 20.7692 6.75445 20.6611 6.64698V6.64698Z" fill="black"/>
</svg>
