<svg width="48" height="48" viewBox="0 0 48 48" fill="none" xmlns="http://www.w3.org/2000/svg">
<circle cx="24" cy="24" r="24" fill="#57B860"/>
<path d="M31.2656 23.9063C31 25.4844 30.6641 26.6719 30.2578 27.4688C30.2109 27.6719 30.0313 28.0898 29.7188 28.7227C29.4063 29.3555 29.125 30.0469 28.875 30.7969C28.625 31.5469 28.5 32.2813 28.5 33C28.5 34.0469 28.168 34.8086 27.5039 35.2852C26.8398 35.7617 25.6719 36 24 36C22.3281 36 21.1602 35.7617 20.4961 35.2852C19.832 34.8086 19.5 34.0469 19.5 33C19.5 32.2813 19.375 31.5469 19.125 30.7969C18.875 30.0469 18.5938 29.3555 18.2813 28.7227C17.9688 28.0898 17.7891 27.6719 17.7422 27.4688C17.3359 26.6719 17 25.4844 16.7344 23.9063C16.5469 23.9531 16.3516 23.9805 16.1484 23.9883C15.9453 23.9961 15.7148 23.9922 15.457 23.9766C15.1992 23.9609 14.9805 23.9453 14.8008 23.9297C14.6211 23.9141 14.375 23.875 14.0625 23.8125C13.75 23.75 13.5273 23.707 13.3945 23.6836C13.2617 23.6602 13.0156 23.6094 12.6563 23.5313C12.2969 23.4531 12.0781 23.4063 12 23.3906C12.3437 22.9219 12.6055 22.582 12.7852 22.3711C12.9648 22.1602 13.2187 21.9258 13.5469 21.668C13.875 21.4102 14.2383 21.2344 14.6367 21.1406C15.0352 21.0469 15.5078 21 16.0547 21C16.1328 21 16.2891 21.0234 16.5234 21.0703C16.5391 20.6016 16.6094 20.1875 16.7344 19.8281C16.5625 19.25 16.4844 18.6875 16.5 18.1406C16.5 17.7344 16.5039 17.418 16.5117 17.1914C16.5195 16.9648 16.5508 16.625 16.6055 16.1719C16.6602 15.7188 16.75 15.3281 16.875 15C17 14.6719 17.168 14.3086 17.3789 13.9102C17.5898 13.5117 17.875 13.1523 18.2344 12.832C18.5937 12.5117 19.0156 12.2344 19.5 12C18.9219 13.1406 18.6328 14.1641 18.6328 15.0703C18.6328 15.8516 18.7656 16.6094 19.0312 17.3438C20.25 16.7813 21.9063 16.5 24 16.5C26.0938 16.5 27.75 16.7813 28.9688 17.3438C29.2344 16.6094 29.3672 15.8516 29.3672 15.0703C29.3672 14.1641 29.0781 13.1406 28.5 12C28.9844 12.2344 29.4063 12.5117 29.7656 12.832C30.125 13.1523 30.4102 13.5117 30.6211 13.9102C30.832 14.3086 31 14.6719 31.125 15C31.25 15.3281 31.3398 15.7188 31.3945 16.1719C31.4492 16.625 31.4805 16.9648 31.4883 17.1914C31.4961 17.418 31.5 17.7344 31.5 18.1406C31.5156 18.6719 31.4375 19.2344 31.2656 19.8281C31.3906 20.1875 31.4609 20.6016 31.4766 21.0703C31.7109 21.0234 31.8672 21 31.9453 21C32.4922 21 32.9648 21.0469 33.3633 21.1406C33.7617 21.2344 34.125 21.4102 34.4531 21.668C34.7813 21.9258 35.0352 22.1602 35.2148 22.3711C35.3945 22.582 35.6563 22.9219 36 23.3906C35.9219 23.4063 35.7031 23.4531 35.3438 23.5313C34.9844 23.6094 34.7383 23.6602 34.6055 23.6836C34.4727 23.707 34.25 23.75 33.9375 23.8125C33.625 23.875 33.3789 23.9141 33.1992 23.9297C33.0195 23.9453 32.8008 23.9609 32.543 23.9766C32.2852 23.9922 32.0547 23.9961 31.8516 23.9883C31.6484 23.9805 31.4531 23.9531 31.2656 23.9063Z" fill="white"/>
</svg>
