<svg width="24" height="24" viewBox="0 0 24 24" fill="none" xmlns="http://www.w3.org/2000/svg">
<path d="M17.7315 8.13892H5.33074C5.2559 8.13882 5.18178 8.15349 5.11261 8.18207C5.04344 8.21065 4.98059 8.25259 4.92765 8.30549C4.87471 8.35838 4.83272 8.4212 4.80408 8.49034C4.77544 8.55949 4.76071 8.6336 4.76074 8.70844V20.6813C4.76071 20.7562 4.77543 20.8304 4.80406 20.8996C4.83269 20.9688 4.87466 21.0316 4.92759 21.0846C4.98052 21.1376 5.04337 21.1796 5.11254 21.2083C5.18171 21.237 5.25586 21.2518 5.33074 21.2518H17.7315C17.8064 21.2518 17.8806 21.2371 17.9498 21.2084C18.019 21.1798 18.0819 21.1377 18.1348 21.0848C18.1878 21.0318 18.2297 20.9689 18.2584 20.8996C18.287 20.8304 18.3016 20.7562 18.3015 20.6813V8.7082C18.3016 8.63336 18.2869 8.55925 18.2583 8.4901C18.2296 8.42096 18.1876 8.35814 18.1347 8.30526C18.0817 8.25237 18.0189 8.21046 17.9497 8.18192C17.8805 8.15337 17.8064 8.13876 17.7315 8.13892V8.13892Z" fill="white"/>
<path d="M18.4919 4.29024H13.7874V3.57048C13.7876 3.49561 13.7729 3.42145 13.7444 3.35224C13.7158 3.28303 13.6739 3.22013 13.621 3.16715C13.5681 3.11416 13.5053 3.07212 13.4361 3.04344C13.3669 3.01476 13.2928 3 13.2179 3H9.844C9.76911 3 9.69495 3.01476 9.62576 3.04343C9.55657 3.07211 9.49372 3.11414 9.44078 3.16712C9.38784 3.2201 9.34587 3.28299 9.31725 3.3522C9.28864 3.42141 9.27394 3.49559 9.274 3.57048V4.29024H4.57C4.49516 4.29015 4.42104 4.30481 4.35187 4.33339C4.2827 4.36197 4.21985 4.40391 4.16691 4.45681C4.11397 4.50971 4.07197 4.57252 4.04333 4.64167C4.01469 4.71081 3.99997 4.78492 4 4.85976V6.52344C3.99997 6.59828 4.01469 6.67239 4.04333 6.74153C4.07197 6.81068 4.11397 6.87349 4.16691 6.92639C4.21985 6.97929 4.2827 7.02123 4.35187 7.04981C4.42104 7.07839 4.49516 7.09305 4.57 7.09296H18.4919C18.5668 7.09312 18.6409 7.0785 18.7101 7.04994C18.7793 7.02138 18.8422 6.97944 18.8952 6.92653C18.9481 6.87362 18.9901 6.81078 19.0187 6.74161C19.0473 6.67244 19.062 6.5983 19.0619 6.52344V4.85976C19.062 4.7849 19.0473 4.71076 19.0187 4.64159C18.9901 4.57242 18.9481 4.50958 18.8952 4.45667C18.8422 4.40376 18.7793 4.36182 18.7101 4.33326C18.6409 4.3047 18.5668 4.29008 18.4919 4.29024V4.29024Z" fill="white"/>
</svg>
