<svg width="72" height="72" viewBox="0 0 72 72" fill="none" xmlns="http://www.w3.org/2000/svg">
<circle cx="36" cy="36" r="36" fill="#57B860"/>
<path d="M46.8646 22C47.7396 22 48.4809 22.3038 49.0885 22.9115C49.6962 23.5191 50 24.2604 50 25.1354V46.8646C50 47.7396 49.6962 48.4809 49.0885 49.0885C48.4809 49.6962 47.7396 50 46.8646 50H25.1354C24.2604 50 23.5191 49.6962 22.9115 49.0885C22.3038 48.4809 22 47.7396 22 46.8646V25.1354C22 24.2604 22.3038 23.5191 22.9115 22.9115C23.5191 22.3038 24.2604 22 25.1354 22H46.8646ZM45.3333 39.1354V32.8646H39.1354V26.6667H32.8646V32.8646H26.6667V39.1354H32.8646V45.3333H39.1354V39.1354H45.3333Z" fill="white"/>
</svg>
