<svg width="20" height="20" viewBox="0 0 20 20" fill="none" xmlns="http://www.w3.org/2000/svg">
<path d="M15.8337 3.33329H15.0003V2.49996C15.0003 1.99996 14.667 1.66663 14.167 1.66663C13.667 1.66663 13.3337 1.99996 13.3337 2.49996V3.33329H6.66699V2.49996C6.66699 1.99996 6.33366 1.66663 5.83366 1.66663C5.33366 1.66663 5.00033 1.99996 5.00033 2.49996V3.33329H4.16699C2.75033 3.33329 1.66699 4.41663 1.66699 5.83329V6.66663H18.3337V5.83329C18.3337 4.41663 17.2503 3.33329 15.8337 3.33329ZM1.66699 15.8333C1.66699 17.25 2.75033 18.3333 4.16699 18.3333H15.8337C17.2503 18.3333 18.3337 17.25 18.3337 15.8333V8.33329H1.66699V15.8333ZM14.167 9.99996C14.667 9.99996 15.0003 10.3333 15.0003 10.8333C15.0003 11.3333 14.667 11.6666 14.167 11.6666C13.667 11.6666 13.3337 11.3333 13.3337 10.8333C13.3337 10.3333 13.667 9.99996 14.167 9.99996ZM14.167 13.3333C14.667 13.3333 15.0003 13.6666 15.0003 14.1666C15.0003 14.6666 14.667 15 14.167 15C13.667 15 13.3337 14.6666 13.3337 14.1666C13.3337 13.6666 13.667 13.3333 14.167 13.3333ZM10.0003 9.99996C10.5003 9.99996 10.8337 10.3333 10.8337 10.8333C10.8337 11.3333 10.5003 11.6666 10.0003 11.6666C9.50033 11.6666 9.16699 11.3333 9.16699 10.8333C9.16699 10.3333 9.50033 9.99996 10.0003 9.99996ZM10.0003 13.3333C10.5003 13.3333 10.8337 13.6666 10.8337 14.1666C10.8337 14.6666 10.5003 15 10.0003 15C9.50033 15 9.16699 14.6666 9.16699 14.1666C9.16699 13.6666 9.50033 13.3333 10.0003 13.3333ZM5.83366 9.99996C6.33366 9.99996 6.66699 10.3333 6.66699 10.8333C6.66699 11.3333 6.33366 11.6666 5.83366 11.6666C5.33366 11.6666 5.00033 11.3333 5.00033 10.8333C5.00033 10.3333 5.33366 9.99996 5.83366 9.99996ZM5.83366 13.3333C6.33366 13.3333 6.66699 13.6666 6.66699 14.1666C6.66699 14.6666 6.33366 15 5.83366 15C5.33366 15 5.00033 14.6666 5.00033 14.1666C5.00033 13.6666 5.33366 13.3333 5.83366 13.3333Z" fill="#C4C4C4"/>
</svg>
