<svg width="56" height="56" viewBox="0 0 56 56" fill="none" xmlns="http://www.w3.org/2000/svg">
<circle cx="28" cy="28" r="28" fill="#F5E8E8"/>
<path fill-rule="evenodd" clip-rule="evenodd" d="M20.4344 18.4284C21.0403 18.2747 21.6506 18.0287 22.0892 17.705C23.2376 16.8604 23.904 15.1614 22.4346 15.3476C22.0091 15.4016 21.7017 15.4126 21.4501 15.4217L21.4463 15.4218C20.8332 15.4426 20.5601 15.4525 19.7463 16.0521C19.4356 16.279 19.1476 16.5355 18.8864 16.8179C17.6213 15.8775 15.9385 15.4571 12.9952 15.6017C12.8753 15.6017 12.7603 15.6494 12.6755 15.7342C12.5908 15.819 12.5431 15.934 12.5431 16.0539C12.5431 16.1738 12.5908 16.2888 12.6755 16.3736C12.7603 16.4583 12.8753 16.506 12.9952 16.506H14.5659C14.8245 16.6724 15.0452 16.8279 15.2414 16.9762L12.0006 21.0272H11.8089C11.5269 21.0271 11.2488 21.093 10.9968 21.2196C10.7448 21.3461 10.5259 21.5298 10.3576 21.7561C10.1892 21.9823 10.0762 22.2448 10.0273 22.5225C9.97849 22.8002 9.99528 23.0855 10.0764 23.3556L10.3476 24.2598C10.4594 24.6324 10.6884 24.9589 11.0005 25.191C11.3126 25.4232 11.6912 25.5485 12.0801 25.5484H15.1202C15.5024 25.5486 15.8746 25.6698 16.1836 25.8947L18.1639 27.3343C18.2236 27.3777 18.285 27.4174 18.3474 27.4518C19.7644 31.1049 21.2591 33.9497 22.9319 35.3811L23.2439 39.1246C23.0204 39.1624 22.8193 39.2828 22.6803 39.4619C22.5413 39.6409 22.4747 39.8657 22.4936 40.0915C22.5125 40.3174 22.6155 40.528 22.7822 40.6815C22.949 40.835 23.1673 40.9203 23.394 40.9205H26.1067V32.7823H31.6405C32.1432 34.8458 34.3324 36.3993 36.9574 36.3993C38.1406 36.3993 39.2353 36.0836 40.1268 35.5479L40.4245 39.1246C40.201 39.1624 39.9998 39.2828 39.8609 39.4619C39.7219 39.6409 39.6553 39.8657 39.6741 40.0915C39.693 40.3174 39.796 40.528 39.9628 40.6815C40.1296 40.835 40.3479 40.9203 40.5746 40.9205H43.2873V24.6441C43.2916 23.4166 42.8876 22.2224 42.1389 21.2496C42.704 21.4015 43.0992 21.6231 43.3777 21.8916C43.8814 22.3754 44.1915 23.1901 44.1915 24.6441L44.5415 29.5451C44.329 29.8752 44.1915 30.3924 44.1915 30.9738C44.1915 31.973 44.5966 32.7823 45.0958 32.7823C45.5949 32.7823 46 31.973 46 30.9738C46 30.3924 45.8626 29.8752 45.6501 29.5451L46 24.6441C46 22.9858 45.6537 21.5697 44.631 20.5868C43.6209 19.6166 42.1389 19.2513 40.315 19.2205C40.2463 19.2187 38.3646 19.2187 38.314 19.2187V19.225C38.2302 19.2209 38.1464 19.2188 38.0626 19.2187H24.7504C23.0016 19.2187 21.6805 18.9583 20.5728 18.6147L20.4344 18.4284ZM30.4725 23.5423C30.4725 23.2456 30.6703 23.0478 30.967 23.0478H31.4615C31.7582 23.0478 31.956 23.2456 31.956 23.5423V25.5203H33.9341C34.2308 25.5203 34.4286 25.7181 34.4286 26.0148V26.5093C34.4286 26.806 34.2308 27.0038 33.9341 27.0038H31.956V28.9818C31.956 29.2786 31.7582 29.4764 31.4615 29.4764H30.967C30.6703 29.4764 30.4725 29.2786 30.4725 28.9818V27.0038H28.4945C28.1978 27.0038 28 26.806 28 26.5093V26.0148C28 25.7181 28.1978 25.5203 28.4945 25.5203H30.4725V23.5423Z" fill="#57B860"/>
<mask id="mask0_463:3052" style="mask-type:alpha" maskUnits="userSpaceOnUse" x="10" y="15" width="36" height="26">
<path fill-rule="evenodd" clip-rule="evenodd" d="M20.4344 18.4284C21.0403 18.2747 21.6506 18.0287 22.0892 17.705C23.2376 16.8604 23.904 15.1614 22.4346 15.3476C22.0091 15.4016 21.7017 15.4126 21.4501 15.4217L21.4463 15.4218C20.8332 15.4426 20.5601 15.4525 19.7463 16.0521C19.4356 16.279 19.1477 16.5355 18.8864 16.8179C17.6213 15.8775 15.9385 15.4571 12.9952 15.6017C12.8753 15.6017 12.7603 15.6494 12.6755 15.7342C12.5908 15.819 12.5431 15.934 12.5431 16.0539C12.5431 16.1738 12.5908 16.2888 12.6755 16.3736C12.7603 16.4583 12.8753 16.506 12.9952 16.506H14.5659C14.8245 16.6724 15.0452 16.8279 15.2414 16.9762L12.0006 21.0272H11.8089C11.5269 21.0271 11.2488 21.093 10.9968 21.2196C10.7448 21.3461 10.5259 21.5298 10.3576 21.7561C10.1892 21.9823 10.0762 22.2448 10.0273 22.5225C9.97849 22.8002 9.99528 23.0855 10.0764 23.3556L10.3476 24.2598C10.4594 24.6324 10.6884 24.9589 11.0005 25.191C11.3126 25.4232 11.6912 25.5485 12.0801 25.5484H15.1202C15.5024 25.5486 15.8746 25.6698 16.1836 25.8947L18.1639 27.3343C18.2236 27.3777 18.285 27.4174 18.3474 27.4518C19.7644 31.1049 21.2591 33.9497 22.9319 35.3811L23.2439 39.1246C23.0204 39.1624 22.8193 39.2828 22.6803 39.4619C22.5413 39.6409 22.4747 39.8657 22.4936 40.0915C22.5125 40.3174 22.6155 40.528 22.7822 40.6815C22.949 40.835 23.1673 40.9203 23.394 40.9205H26.1067V32.7823H31.6405C32.1432 34.8458 34.3324 36.3993 36.9574 36.3993C38.1406 36.3993 39.2353 36.0836 40.1268 35.5479L40.4245 39.1246C40.201 39.1624 39.9998 39.2828 39.8609 39.4619C39.7219 39.6409 39.6553 39.8657 39.6741 40.0915C39.693 40.3174 39.796 40.528 39.9628 40.6815C40.1296 40.835 40.3479 40.9203 40.5746 40.9205H43.2873V24.6441C43.2916 23.4166 42.8876 22.2224 42.1389 21.2496C42.704 21.4015 43.0992 21.6231 43.3777 21.8916C43.8814 22.3754 44.1915 23.1901 44.1915 24.6441L44.5415 29.5451C44.329 29.8752 44.1915 30.3924 44.1915 30.9738C44.1915 31.973 44.5966 32.7823 45.0958 32.7823C45.5949 32.7823 46 31.973 46 30.9738C46 30.3924 45.8626 29.8752 45.6501 29.5451L46 24.6441C46 22.9858 45.6537 21.5697 44.631 20.5868C43.6209 19.6166 42.1389 19.2513 40.315 19.2205C40.2463 19.2187 38.3646 19.2187 38.314 19.2187V19.225C38.2302 19.2209 38.1464 19.2188 38.0626 19.2187H24.7504C23.0016 19.2187 21.6805 18.9583 20.5728 18.6147L20.4344 18.4284ZM30.4725 23.5423C30.4725 23.2456 30.6703 23.0478 30.967 23.0478H31.4615C31.7582 23.0478 31.956 23.2456 31.956 23.5423V25.5203H33.9341C34.2308 25.5203 34.4286 25.7181 34.4286 26.0148V26.5093C34.4286 26.806 34.2308 27.0038 33.9341 27.0038H31.956V28.9818C31.956 29.2786 31.7582 29.4764 31.4615 29.4764H30.967C30.6703 29.4764 30.4725 29.2786 30.4725 28.9818V27.0038H28.4945C28.1978 27.0038 28 26.806 28 26.5093V26.0148C28 25.7181 28.1978 25.5203 28.4945 25.5203H30.4725V23.5423Z" fill="#57B860"/>
</mask>
<g mask="url(#mask0_463:3052)">
<path d="M46.5 8.5L15 43.5L46.5 44V8.5Z" fill="#75C97D"/>
</g>
</svg>
