<svg width="20" height="20" viewBox="0 0 20 20" fill="none" xmlns="http://www.w3.org/2000/svg">
<path d="M6.55322 5.4692C6.83238 5.39836 7.11363 5.28503 7.31572 5.13586C7.84488 4.7467 8.15197 3.96378 7.47488 4.04961C7.2778 4.07461 7.13572 4.07961 7.01947 4.08378C6.73697 4.09336 6.61113 4.09795 6.23613 4.3742C6.09298 4.47879 5.96028 4.59698 5.83988 4.72711C5.25697 4.29378 4.48155 4.10003 3.1253 4.1667C3.07005 4.1667 3.01706 4.18864 2.97799 4.22771C2.93892 4.26678 2.91697 4.31978 2.91697 4.37503C2.91697 4.43028 2.93892 4.48327 2.97799 4.52234C3.01706 4.56141 3.07005 4.58336 3.1253 4.58336H3.84905C3.96822 4.66003 4.06988 4.7317 4.1603 4.80003L2.66697 6.6667H2.57863C2.4487 6.66667 2.32055 6.69702 2.20444 6.75534C2.08832 6.81366 1.98745 6.89832 1.90989 7.00257C1.83232 7.10681 1.78021 7.22775 1.75771 7.35572C1.73521 7.4837 1.74294 7.61516 1.7803 7.73961L1.9053 8.15628C1.95683 8.32794 2.06232 8.47841 2.20613 8.58537C2.34995 8.69232 2.52441 8.75007 2.70363 8.75003H4.10447C4.28056 8.75012 4.4521 8.80598 4.59447 8.90961L5.50697 9.57295C5.53447 9.59295 5.5628 9.61128 5.59155 9.62711C6.24447 11.3104 6.93322 12.6213 7.70405 13.2809L7.8478 15.0059C7.74482 15.0233 7.65213 15.0787 7.5881 15.1612C7.52407 15.2438 7.49336 15.3473 7.50206 15.4514C7.51076 15.5555 7.55823 15.6525 7.63507 15.7232C7.71191 15.794 7.81252 15.8333 7.91697 15.8334H9.16697V12.0834H13.2545C13.8711 12.6838 14.5628 13.1546 15.6253 13.3334L15.7645 15.0059C15.6615 15.0233 15.5688 15.0787 15.5048 15.1612C15.4407 15.2438 15.41 15.3473 15.4187 15.4514C15.4274 15.5555 15.4749 15.6525 15.5517 15.7232C15.6286 15.794 15.7292 15.8333 15.8336 15.8334H17.0836V8.33336C17.0856 7.76771 16.8995 7.21746 16.5545 6.7692C16.8149 6.8392 16.997 6.94128 17.1253 7.06503C17.3574 7.28794 17.5003 7.66336 17.5003 8.33336L17.6616 10.5917C17.5636 10.7438 17.5003 10.9821 17.5003 11.25C17.5003 11.7104 17.687 12.0834 17.917 12.0834C18.147 12.0834 18.3336 11.7104 18.3336 11.25C18.3336 10.9821 18.2703 10.7438 18.1724 10.5917L18.3336 8.33336C18.3336 7.5692 18.174 6.91669 17.7028 6.46378C17.2374 6.0167 16.5545 5.84836 15.7141 5.8342C15.6824 5.83336 14.8153 5.83336 14.792 5.83336V5.83628C14.7534 5.83436 14.7148 5.83339 14.6761 5.83336H8.54197C7.73613 5.83336 7.12738 5.71336 6.61697 5.55503L6.55322 5.4692Z" fill="#C4C4C4"/>
</svg>
