<svg width="240" height="240" viewBox="0 0 240 240" fill="none" xmlns="http://www.w3.org/2000/svg">
<path d="M165.271 87.1822C163.61 97.0148 161.511 104.414 158.972 109.379C158.679 110.644 157.556 113.248 155.603 117.191C153.649 121.134 151.892 125.442 150.329 130.114C148.767 134.787 147.985 139.363 147.985 143.841C147.985 150.364 145.91 155.11 141.76 158.079C137.609 161.048 130.31 162.533 119.86 162.533C109.411 162.533 102.111 161.048 97.9609 158.079C93.8106 155.11 91.7354 150.364 91.7354 143.841C91.7354 139.363 90.9541 134.787 89.3916 130.114C87.8291 125.442 86.0713 121.134 84.1182 117.191C82.165 113.248 81.042 110.644 80.749 109.379C78.21 104.414 76.1104 97.0148 74.4502 87.1822C73.2783 87.4743 72.0576 87.6447 70.7881 87.6933C69.5186 87.742 68.0781 87.7177 66.4668 87.6203C64.8555 87.523 63.4883 87.4256 62.3652 87.3283C61.2422 87.2309 59.7041 86.9875 57.751 86.5981C55.7979 86.2087 54.4063 85.941 53.5762 85.795C52.7461 85.649 51.208 85.3326 48.9619 84.8458C46.7158 84.359 45.3486 84.067 44.8604 83.9696C47.0088 81.0491 48.6445 78.9317 49.7676 77.6174C50.8906 76.3032 52.4775 74.8429 54.5283 73.2366C56.5791 71.6303 58.8496 70.535 61.3398 69.9509C63.8301 69.3668 66.7842 69.0748 70.2022 69.0748C70.6904 69.0748 71.667 69.2208 73.1318 69.5129C73.2295 66.5923 73.6689 64.0125 74.4502 61.7734C73.376 58.1713 72.8877 54.6667 72.9854 51.2593C72.9854 48.7282 73.0098 46.7568 73.0586 45.3452C73.1074 43.9336 73.3027 41.8162 73.6445 38.993C73.9863 36.1698 74.5479 33.736 75.3291 31.6916C76.1104 29.6472 77.1602 27.3838 78.4785 24.9013C79.7969 22.4188 81.5791 20.1797 83.8252 18.184C86.0713 16.1883 88.708 14.4603 91.7354 13C88.1221 20.1067 86.3154 26.4833 86.3154 32.1297C86.3154 36.9973 87.1455 41.7188 88.8057 46.2944C96.4229 42.7897 106.774 41.0374 119.86 41.0374C132.946 41.0374 143.298 42.7897 150.915 46.2944C152.575 41.7188 153.405 36.9973 153.405 32.1297C153.405 26.4833 151.599 20.1067 147.985 13C151.013 14.4603 153.649 16.1883 155.896 18.184C158.142 20.1797 159.924 22.4188 161.242 24.9013C162.561 27.3838 163.61 29.6472 164.392 31.6916C165.173 33.736 165.734 36.1698 166.076 38.993C166.418 41.8162 166.613 43.9336 166.662 45.3452C166.711 46.7568 166.735 48.7282 166.735 51.2593C166.833 54.5693 166.345 58.074 165.271 61.7734C166.052 64.0125 166.491 66.5923 166.589 69.5129C168.054 69.2208 169.03 69.0748 169.519 69.0748C172.937 69.0748 175.891 69.3668 178.381 69.9509C180.871 70.535 183.142 71.6303 185.192 73.2366C187.243 74.8429 188.83 76.3032 189.953 77.6174C191.076 78.9317 192.712 81.0491 194.86 83.9696C194.372 84.067 193.005 84.359 190.759 84.8458C188.513 85.3326 186.975 85.649 186.145 85.795C185.314 85.941 183.923 86.2087 181.97 86.5981C180.017 86.9875 178.479 87.2309 177.355 87.3283C176.232 87.4256 174.865 87.523 173.254 87.6203C171.643 87.7177 170.202 87.742 168.933 87.6933C167.663 87.6447 166.442 87.4743 165.271 87.1822Z" fill="#57B860"/>
<path d="M0 191.768V216.667H13.3726V212.707H5.0599V191.768H0Z" fill="#57B860"/>
<path d="M16.5887 216.667H21.6486V196.905H16.5887V216.667ZM19.1548 194.551C20.9257 194.551 22.263 193.267 22.263 191.626C22.263 189.985 20.9257 188.701 19.1548 188.701C17.3476 188.701 16.0465 189.985 16.0465 191.626C16.0465 193.267 17.3476 194.551 19.1548 194.551Z" fill="#57B860"/>
<path d="M24.5154 196.905L31.8884 216.667H38.0325L45.4416 196.905H40.0565L34.9966 212.065L29.9367 196.905H24.5154Z" fill="#57B860"/>
<path d="M56.8854 200.686C59.4877 200.686 61.5839 202.327 61.6562 204.931H52.1508C52.5484 202.22 54.4639 200.686 56.8854 200.686ZM66.3908 210.46H60.9333C60.2828 211.78 59.0901 212.85 56.9216 212.85C54.3916 212.85 52.3677 211.209 52.1147 208.284H66.7522C66.8606 207.642 66.8968 207 66.8968 206.358C66.8968 200.472 62.8127 196.584 57.03 196.584C51.1027 196.584 46.9825 200.543 46.9825 206.786C46.9825 212.993 51.2111 216.988 57.03 216.988C61.9815 216.988 65.3065 214.098 66.3908 210.46Z" fill="#57B860"/>
<path d="M86.1312 211.031C85.9866 203.79 74.891 206.037 74.891 202.434C74.891 201.293 75.8668 200.543 77.7462 200.543C79.734 200.543 80.9628 201.578 81.1074 203.112H85.9505C85.6613 199.188 82.7338 196.584 77.8908 196.584C72.9393 196.584 69.9756 199.224 69.9756 202.505C69.9756 209.747 81.2881 207.499 81.2881 211.031C81.2881 212.172 80.2039 213.064 78.216 213.064C76.1921 213.064 74.7825 211.922 74.6018 210.424H69.5058C69.7226 214.098 73.2284 216.988 78.2522 216.988C83.1314 216.988 86.1312 214.419 86.1312 211.031Z" fill="#57B860"/>
<path d="M91.0798 210.531C91.0798 215.062 93.6459 216.667 97.477 216.667H100.657V212.458H98.3082C96.718 212.458 96.1758 211.887 96.1758 210.567V201.007H100.657V196.905H96.1758V192.018H91.0798V196.905H88.6944V201.007H91.0798V210.531Z" fill="#57B860"/>
<path d="M123.633 206.786C123.633 200.543 119.115 196.584 113.332 196.584C107.55 196.584 103.032 200.543 103.032 206.786C103.032 212.993 107.405 216.988 113.188 216.988C119.007 216.988 123.633 212.993 123.633 206.786ZM108.164 206.786C108.164 202.826 110.586 200.936 113.26 200.936C115.935 200.936 118.428 202.826 118.428 206.786C118.428 210.71 115.862 212.636 113.188 212.636C110.477 212.636 108.164 210.71 108.164 206.786Z" fill="#57B860"/>
<path d="M126.043 206.786C126.043 212.993 130.164 216.988 135.946 216.988C140.934 216.988 144.295 214.205 145.379 209.996H139.922C139.308 211.78 138.006 212.707 135.91 212.707C133.091 212.707 131.212 210.638 131.212 206.786C131.212 202.933 133.091 200.829 135.91 200.829C138.006 200.829 139.344 201.899 139.922 203.575H145.379C144.295 199.152 140.934 196.584 135.946 196.584C130.164 196.584 126.043 200.579 126.043 206.786Z" fill="#57B860"/>
<path d="M149.086 216.667H154.146V208.248L160.941 216.667H167.519L158.628 206.822L167.446 196.905H160.869L154.146 205.288V190.27H149.086V216.667Z" fill="#57B860"/>
<path d="M168.892 206.715C168.892 212.886 172.939 216.988 177.999 216.988C181.18 216.988 183.457 215.49 184.649 213.777V216.667H189.746V196.905H184.649V199.723C183.457 198.082 181.252 196.584 178.035 196.584C172.939 196.584 168.892 200.543 168.892 206.715ZM184.649 206.786C184.649 210.531 182.12 212.6 179.337 212.6C176.626 212.6 174.06 210.46 174.06 206.715C174.06 202.969 176.626 200.971 179.337 200.971C182.12 200.971 184.649 203.04 184.649 206.786Z" fill="#57B860"/>
<path d="M199.747 199.759V196.905H194.687V226.084H199.747V213.849C200.976 215.454 203.217 216.988 206.361 216.988C211.493 216.988 215.505 212.886 215.505 206.715C215.505 200.543 211.493 196.584 206.361 196.584C203.253 196.584 200.94 198.082 199.747 199.759ZM210.337 206.715C210.337 210.46 207.771 212.6 205.024 212.6C202.313 212.6 199.747 210.531 199.747 206.786C199.747 203.04 202.313 200.971 205.024 200.971C207.771 200.971 210.337 202.969 210.337 206.715Z" fill="#57B860"/>
<path d="M224.242 199.759V196.905H219.182V226.084H224.242V213.849C225.471 215.454 227.712 216.988 230.856 216.988C235.988 216.988 240 212.886 240 206.715C240 200.543 235.988 196.584 230.856 196.584C227.748 196.584 225.435 198.082 224.242 199.759ZM234.832 206.715C234.832 210.46 232.266 212.6 229.519 212.6C226.808 212.6 224.242 210.531 224.242 206.786C224.242 203.04 226.808 200.971 229.519 200.971C232.266 200.971 234.832 202.969 234.832 206.715Z" fill="#57B860"/>
</svg>
